<mxfile host="app.diagrams.net" modified="2021-06-24T02:47:35.810Z" agent="5.0 (Windows NT 10.0; Win64; x64) AppleWebKit/537.36 (KHTML, like Gecko) Chrome/91.0.4472.114 Safari/537.36" etag="EoZEK4yEI5dpPCrzelrx" version="14.8.0" type="github">
  <diagram id="kgpKYQtTHZ0yAKxKKP6v" name="Page-1">
    <mxGraphModel dx="1038" dy="588" grid="1" gridSize="10" guides="1" tooltips="1" connect="1" arrows="1" fold="1" page="1" pageScale="1" pageWidth="850" pageHeight="1100" math="0" shadow="0">
      <root>
        <mxCell id="0" />
        <mxCell id="1" parent="0" />
        <mxCell id="3nuBFxr9cyL0pnOWT2aG-1" value="LoginInterface" style="shape=umlLifeline;perimeter=lifelinePerimeter;container=1;collapsible=0;recursiveResize=0;rounded=0;shadow=0;strokeWidth=1;" parent="1" vertex="1">
          <mxGeometry x="120" y="80" width="100" height="300" as="geometry" />
        </mxCell>
        <mxCell id="3nuBFxr9cyL0pnOWT2aG-2" value="" style="points=[];perimeter=orthogonalPerimeter;rounded=0;shadow=0;strokeWidth=1;" parent="3nuBFxr9cyL0pnOWT2aG-1" vertex="1">
          <mxGeometry x="45" y="70" width="10" height="190" as="geometry" />
        </mxCell>
        <mxCell id="3nuBFxr9cyL0pnOWT2aG-5" value="LoginManager" style="shape=umlLifeline;perimeter=lifelinePerimeter;container=1;collapsible=0;recursiveResize=0;rounded=0;shadow=0;strokeWidth=1;" parent="1" vertex="1">
          <mxGeometry x="330" y="80" width="100" height="300" as="geometry" />
        </mxCell>
        <mxCell id="3nuBFxr9cyL0pnOWT2aG-6" value="" style="points=[];perimeter=orthogonalPerimeter;rounded=0;shadow=0;strokeWidth=1;" parent="3nuBFxr9cyL0pnOWT2aG-5" vertex="1">
          <mxGeometry x="45" y="80" width="10" height="160" as="geometry" />
        </mxCell>
        <mxCell id="3nuBFxr9cyL0pnOWT2aG-9" value="IfPass = Check(Result)" style="verticalAlign=bottom;endArrow=block;shadow=0;strokeWidth=1;entryX=0.5;entryY=0.5;entryDx=0;entryDy=0;entryPerimeter=0;" parent="3nuBFxr9cyL0pnOWT2aG-5" target="3nuBFxr9cyL0pnOWT2aG-6" edge="1">
          <mxGeometry relative="1" as="geometry">
            <mxPoint x="57" y="120" as="sourcePoint" />
            <mxPoint x="57" y="160" as="targetPoint" />
            <Array as="points">
              <mxPoint x="110" y="120" />
              <mxPoint x="110" y="140" />
              <mxPoint x="110" y="160" />
            </Array>
          </mxGeometry>
        </mxCell>
        <mxCell id="3nuBFxr9cyL0pnOWT2aG-8" value="Check(UserName,Password)" style="verticalAlign=bottom;endArrow=block;entryX=0;entryY=0;shadow=0;strokeWidth=1;" parent="1" source="3nuBFxr9cyL0pnOWT2aG-2" target="3nuBFxr9cyL0pnOWT2aG-6" edge="1">
          <mxGeometry relative="1" as="geometry">
            <mxPoint x="275" y="160" as="sourcePoint" />
          </mxGeometry>
        </mxCell>
        <mxCell id="97pK0uNCLLrWp3kxw9_Q-2" value="DatabaseManager" style="shape=umlLifeline;perimeter=lifelinePerimeter;whiteSpace=wrap;html=1;container=1;collapsible=0;recursiveResize=0;outlineConnect=0;" vertex="1" parent="1">
          <mxGeometry x="490" y="80" width="100" height="300" as="geometry" />
        </mxCell>
        <mxCell id="97pK0uNCLLrWp3kxw9_Q-3" value="" style="points=[];perimeter=orthogonalPerimeter;rounded=0;shadow=0;strokeWidth=1;" vertex="1" parent="1">
          <mxGeometry x="535" y="160" width="10" height="160" as="geometry" />
        </mxCell>
        <mxCell id="97pK0uNCLLrWp3kxw9_Q-4" value="GetPassword(UseName)" style="html=1;verticalAlign=bottom;endArrow=block;exitX=1.1;exitY=0.097;exitDx=0;exitDy=0;exitPerimeter=0;" edge="1" parent="1" source="3nuBFxr9cyL0pnOWT2aG-6">
          <mxGeometry x="-0.0392" y="6" width="80" relative="1" as="geometry">
            <mxPoint x="380" y="300" as="sourcePoint" />
            <mxPoint x="540" y="176" as="targetPoint" />
            <Array as="points" />
            <mxPoint as="offset" />
          </mxGeometry>
        </mxCell>
        <mxCell id="97pK0uNCLLrWp3kxw9_Q-5" value="Set(Result)" style="html=1;verticalAlign=bottom;endArrow=open;dashed=1;endSize=8;entryX=1.26;entryY=0.187;entryDx=0;entryDy=0;entryPerimeter=0;exitX=0.06;exitY=0.197;exitDx=0;exitDy=0;exitPerimeter=0;" edge="1" parent="1" source="97pK0uNCLLrWp3kxw9_Q-3" target="3nuBFxr9cyL0pnOWT2aG-6">
          <mxGeometry relative="1" as="geometry">
            <mxPoint x="530" y="190" as="sourcePoint" />
            <mxPoint x="380" y="300" as="targetPoint" />
            <Array as="points">
              <mxPoint x="460" y="190" />
            </Array>
          </mxGeometry>
        </mxCell>
        <mxCell id="97pK0uNCLLrWp3kxw9_Q-6" value="[If Pass = true] Show(Passed)" style="html=1;verticalAlign=bottom;endArrow=block;exitX=0.06;exitY=0.637;exitDx=0;exitDy=0;exitPerimeter=0;" edge="1" parent="1" source="3nuBFxr9cyL0pnOWT2aG-6" target="3nuBFxr9cyL0pnOWT2aG-2">
          <mxGeometry width="80" relative="1" as="geometry">
            <mxPoint x="380" y="300" as="sourcePoint" />
            <mxPoint x="170" y="300" as="targetPoint" />
          </mxGeometry>
        </mxCell>
        <mxCell id="97pK0uNCLLrWp3kxw9_Q-7" value="[If Pass = false] Retry" style="html=1;verticalAlign=bottom;endArrow=block;exitX=-0.34;exitY=0.797;exitDx=0;exitDy=0;exitPerimeter=0;entryX=1.06;entryY=0.733;entryDx=0;entryDy=0;entryPerimeter=0;" edge="1" parent="1" source="3nuBFxr9cyL0pnOWT2aG-6" target="3nuBFxr9cyL0pnOWT2aG-2">
          <mxGeometry width="80" relative="1" as="geometry">
            <mxPoint x="380" y="300" as="sourcePoint" />
            <mxPoint x="460" y="300" as="targetPoint" />
          </mxGeometry>
        </mxCell>
      </root>
    </mxGraphModel>
  </diagram>
</mxfile>
